<?xml version="1.0" encoding="UTF-8"?><svg xmlns="http://www.w3.org/2000/svg" xmlns:xlink="http://www.w3.org/1999/xlink" height="237.4" preserveAspectRatio="xMidYMid meet" version="1.0" viewBox="0.0 0.0 237.4 237.4" width="237.4" zoomAndPan="magnify"><g><g id="change1_1"><path d="M178.6,89.6c-1.2-7.7-7.8-13.2-15.5-13.2H74.4c-7.7,0-14.3,5.6-15.5,13.2c-1.1,7.1-2.2,17-2.2,29.1 c0.1,12.1,1.1,22,2.2,29.1c1.2,7.6,7.8,13.2,15.5,13.2H163c7.7,0,14.4-5.6,15.5-13.2c1.1-7.2,2.2-17,2.2-29.1 C180.7,106.6,179.7,96.7,178.6,89.6z M105.6,135.6v-33.7l31.4,16.9L105.6,135.6z"/></g><g id="change1_2"><path d="M118.7,237.4C53.3,237.4,0,184.2,0,118.7C0,53.3,53.3,0,118.7,0s118.7,53.3,118.7,118.7 C237.4,184.2,184.2,237.4,118.7,237.4z M118.7,6.5C56.8,6.5,6.5,56.8,6.5,118.7c0,61.9,50.3,112.2,112.2,112.2 s112.2-50.3,112.2-112.2C230.9,56.8,180.6,6.5,118.7,6.5z"/></g></g></svg>